<svg data-v-0dd9719b="" version="1.0" xmlns="http://www.w3.org/2000/svg" xmlns:xlink="http://www.w3.org/1999/xlink" width="100%" height="100%" viewBox="0 0 340.000000 250.000000" preserveAspectRatio="xMidYMid meet" color-interpolation-filters="sRGB" style="margin: auto;"> <rect data-v-0dd9719b="" x="0" y="0" width="100%" height="100%" fill="transparent" fill-opacity="1" class="background"></rect> <!----> <g data-v-0dd9719b="" fill="#00b8ee" class="newinitialsvg-g newinitialsvg" transform="translate(84.40749634057283,81.84699630737305)"><g class="tp-name" transform="translate(0,0)"><g transform="translate(0, 0)"><g data-gra="path-name" fill="#00b8ee" transform="translate(0,12.500000000000004)"><g transform="scale(1)"><path d="M0.91-32.50C0.26-32.50-0.07-32.18-0.07-31.53C-0.07-30.88 0.26-30.55 0.91-30.55L5.13-30.55C5.79-30.55 6.24-30.23 6.44-29.57L16.77-0.33C17.09 0.98 18.66 0.98 18.98-0.33L27.43-26.98C27.63-27.69 28.54-27.69 28.73-26.98L37.18-0.33C37.51 0.98 39.07 0.98 39.39-0.33L49.73-29.57C49.92-30.23 50.38-30.55 51.02-30.55L55.25-30.55C55.90-30.55 56.23-30.88 56.23-31.53C56.23-32.18 55.90-32.50 55.25-32.50L42.90-32.50C42.25-32.50 41.93-32.18 41.93-31.53C41.93-30.88 42.25-30.55 42.90-30.55L46.80-30.55C47.58-30.55 47.77-30.23 47.45-29.57L38.68-4.68C38.48-4.16 38.09-4.16 37.90-4.68L29.38-31.53C29.05-32.83 27.11-32.83 26.78-31.53L18.27-4.68C18.07-4.16 17.68-4.16 17.48-4.68L8.71-29.57C8.38-30.23 8.58-30.55 9.36-30.55L13.26-30.55C13.91-30.55 14.24-30.88 14.24-31.53C14.24-32.18 13.91-32.50 13.26-32.50L0.91-32.50Z" transform="translate(0.065, 45.5)"></path></g></g></g><g class="tp-graph" transform="translate(60.29, 0)" mask="url(#0ec8ed36-fa31-4121-8aaa-bc3d7cd8004a)"><rect data-gra="graph-name" fill="#00b8ee" x="0" y="0" width="71.15" height="71.15" rx="35.575"></rect> <g data-gra="path-name" transform="translate(5.99999923706055,12.500000000000004)"><g transform="scale(1)" fill="#00b8ee"><path d="M3.31-1.95C2.67-1.95 2.34-1.63 2.34-0.98C2.34-0.33 2.67 0 3.31 0L15.67 0C16.32 0 16.64-0.33 16.64-0.98C16.64-1.63 16.32-1.95 15.67-1.95L11.77-1.95C11.12-1.95 10.79-2.27 10.79-2.93L10.79-22.43C11.77-24.05 12.87-25.55 13.97-26.78C16.57-29.71 19.18-31.20 21.84-31.20C27.04-31.20 30.94-27.23 30.94-20.15L30.94-2.93C30.94-2.27 30.62-1.95 29.96-1.95L26.07-1.95C25.41-1.95 25.09-1.63 25.09-0.98C25.09-0.33 25.41 0 26.07 0L37.77 0C38.41 0 38.74-0.33 38.74-0.98C38.74-1.63 38.41-1.95 37.77-1.95L33.87-1.95C33.22-1.95 32.89-2.27 32.89-2.93L32.89-20.15C32.89-20.48 32.83-21.13 32.76-22.10C33.61-23.73 34.65-25.29 35.88-26.65C38.55-29.71 41.27-31.20 43.94-31.20C49.14-31.20 53.04-27.23 53.04-20.15L53.04-2.93C53.04-2.27 52.72-1.95 52.07-1.95L48.16-1.95C47.52-1.95 47.19-1.63 47.19-0.98C47.19-0.33 47.52 0 48.16 0L60.52 0C61.16 0 61.49-0.33 61.49-0.98C61.49-1.63 61.16-1.95 60.52-1.95L55.97-1.95C55.32-1.95 54.99-2.27 54.99-2.93L54.99-20.15C54.99-28.41 50.44-33.15 43.94-33.15C40.95-33.15 38.09-31.79 35.43-28.99C34.19-27.76 33.15-26.32 32.30-24.83C30.81-30.23 26.85-33.15 21.84-33.15C18.53-33.15 15.21-31.20 11.83-27.23C11.05-26.46 10.79-26.91 10.79-27.89L10.79-31.53C10.79-32.18 10.46-32.50 9.81-32.50L3.31-32.50C2.67-32.50 2.34-32.18 2.34-31.53C2.34-30.88 2.67-30.55 3.31-30.55L7.87-30.55C8.52-30.55 8.84-30.23 8.84-29.57L8.84-2.93C8.84-2.27 8.52-1.95 7.87-1.95L3.31-1.95Z" transform="translate(-2.34, 45.5)"></path></g></g></g><g transform="translate(135.44, 0)"><g data-gra="path-name" fill="#00b8ee" transform="translate(0,12.500000000000004)"><g transform="scale(1)"><path d="M8.19-29.57C8.19-30.23 8.52-30.55 9.17-30.55L17.94-30.55C27.82-30.55 33.54-25.48 33.54-16.57C33.54-6.70 28.54-1.30 21.19-1.30C17.62-1.30 14.43-2.73 11.51-5.66C10.27-6.89 9.17-8.32 8.19-10.08ZM8.19-44.52C8.19-45.18 7.87-45.50 7.21-45.50L0.72-45.50C0.07-45.50-0.26-45.18-0.26-44.52C-0.26-43.88 0.07-43.55 0.72-43.55L5.27-43.55C5.92-43.55 6.24-43.23 6.24-42.58L6.24-0.98C6.24-0.33 6.57 0 7.21 0C7.87 0 8.19-0.33 8.19-0.98L8.19-4.62C8.19-5.46 8.52-5.98 9.23-5.27C10.34-3.90 11.89-2.54 13.91-1.24C16.05 0 18.53 0.65 21.19 0.65C29.84 0.65 35.49-5.66 35.49-16.57C35.49-26.46 28.99-32.50 17.94-32.50L9.17-32.50C8.52-32.50 8.19-32.83 8.19-33.48Z" transform="translate(0.26, 45.5)"></path></g></g></g></g> <g data-gra="path-slogan" fill-rule="" class="tp-slogan" fill="#333333" transform="translate(5,78.1500015258789)"><rect x="0" height="1" y="3.580000400543213" width="55.11750411987305"></rect> <rect height="1" y="3.580000400543213" width="55.11750411987305" x="106.0775032043457"></rect> <g transform="translate(58.11750411987305,0)"><g transform="scale(1)"><path d="M0.50-1.02L1.10-1.72Q1.52-1.27 2.09-1.00Q2.66-0.73 3.28-0.73L3.28-0.73Q4.06-0.73 4.49-1.09Q4.92-1.44 4.92-2.02L4.92-2.02Q4.92-2.32 4.82-2.53Q4.72-2.74 4.54-2.89Q4.37-3.04 4.13-3.16Q3.89-3.28 3.61-3.41L3.61-3.41L2.48-3.90Q2.21-4.02 1.92-4.19Q1.63-4.36 1.40-4.60Q1.18-4.84 1.03-5.17Q0.89-5.50 0.89-5.93L0.89-5.93Q0.89-6.37 1.07-6.76Q1.26-7.14 1.59-7.42Q1.92-7.70 2.37-7.86Q2.82-8.02 3.36-8.02L3.36-8.02Q4.07-8.02 4.67-7.75Q5.27-7.48 5.69-7.04L5.69-7.04L5.15-6.40Q4.79-6.74 4.35-6.94Q3.91-7.14 3.36-7.14L3.36-7.14Q2.70-7.14 2.30-6.83Q1.90-6.53 1.90-5.99L1.90-5.99Q1.90-5.70 2.01-5.50Q2.12-5.30 2.32-5.15Q2.51-5.00 2.74-4.89Q2.96-4.78 3.20-4.68L3.20-4.68L4.32-4.20Q4.66-4.06 4.96-3.87Q5.26-3.68 5.47-3.44Q5.69-3.19 5.81-2.86Q5.94-2.53 5.94-2.10L5.94-2.10Q5.94-1.63 5.75-1.22Q5.57-0.82 5.22-0.51Q4.87-0.20 4.38-0.03Q3.89 0.14 3.26 0.14L3.26 0.14Q2.44 0.14 1.73-0.17Q1.02-0.48 0.50-1.02L0.50-1.02ZM8.49 0L8.49-7.87L9.48-7.87L9.48-0.85L12.93-0.85L12.93 0L8.49 0ZM17.91 0.14L17.91 0.14Q17.17 0.14 16.55-0.14Q15.93-0.43 15.49-0.97Q15.04-1.50 14.80-2.26Q14.55-3.02 14.55-3.97L14.55-3.97Q14.55-4.92 14.80-5.67Q15.04-6.42 15.49-6.94Q15.93-7.46 16.55-7.74Q17.17-8.02 17.91-8.02L17.91-8.02Q18.66-8.02 19.27-7.73Q19.89-7.45 20.34-6.93Q20.79-6.41 21.04-5.66Q21.28-4.91 21.28-3.97L21.28-3.97Q21.28-3.02 21.04-2.26Q20.79-1.50 20.34-0.97Q19.89-0.43 19.27-0.14Q18.66 0.14 17.91 0.14ZM17.91-0.73L17.91-0.73Q18.44-0.73 18.87-0.96Q19.29-1.19 19.60-1.61Q19.90-2.04 20.07-2.63Q20.24-3.23 20.24-3.97L20.24-3.97Q20.24-4.70 20.07-5.29Q19.90-5.88 19.60-6.29Q19.29-6.70 18.87-6.92Q18.44-7.14 17.91-7.14L17.91-7.14Q17.38-7.14 16.96-6.92Q16.53-6.70 16.23-6.29Q15.92-5.88 15.75-5.29Q15.58-4.70 15.58-3.97L15.58-3.97Q15.58-3.23 15.75-2.63Q15.92-2.04 16.23-1.61Q16.53-1.19 16.96-0.96Q17.38-0.73 17.91-0.73ZM23.52-3.94L23.52-3.94Q23.52-4.88 23.79-5.64Q24.06-6.40 24.55-6.92Q25.03-7.45 25.69-7.73Q26.35-8.02 27.14-8.02L27.14-8.02Q27.96-8.02 28.51-7.71Q29.05-7.40 29.40-7.04L29.40-7.04L28.84-6.41Q28.54-6.72 28.15-6.93Q27.76-7.14 27.16-7.14L27.16-7.14Q26.56-7.14 26.08-6.92Q25.60-6.70 25.26-6.28Q24.92-5.87 24.74-5.28Q24.55-4.69 24.55-3.96L24.55-3.96Q24.55-3.22 24.73-2.62Q24.90-2.03 25.23-1.61Q25.56-1.19 26.05-0.96Q26.53-0.73 27.17-0.73L27.17-0.73Q27.59-0.73 27.97-0.86Q28.34-0.98 28.58-1.20L28.58-1.20L28.58-3.25L26.92-3.25L26.92-4.08L29.50-4.08L29.50-0.77Q29.11-0.37 28.48-0.11Q27.85 0.14 27.06 0.14L27.06 0.14Q26.28 0.14 25.63-0.13Q24.98-0.41 24.52-0.93Q24.05-1.45 23.78-2.21Q23.52-2.98 23.52-3.94ZM33.32-3.20L35.68-3.20L35.31-4.40Q35.09-5.06 34.90-5.72Q34.71-6.37 34.52-7.06L34.52-7.06L34.47-7.06Q34.29-6.37 34.10-5.72Q33.90-5.06 33.69-4.40L33.69-4.40L33.32-3.20ZM36.68 0L35.93-2.40L33.06-2.40L32.31 0L31.29 0L33.95-7.87L35.08-7.87L37.74 0L36.68 0ZM39.86 0L39.86-7.87L40.89-7.87L43.74-2.93L44.59-1.30L44.64-1.30Q44.60-1.90 44.56-2.54Q44.52-3.18 44.52-3.80L44.52-3.80L44.52-7.87L45.46-7.87L45.46 0L44.43 0L41.58-4.96L40.72-6.58L40.68-6.58Q40.72-5.98 40.77-5.36Q40.81-4.74 40.81-4.12L40.81-4.12L40.81 0L39.86 0Z" transform="translate(-0.504, 8.016)"></path></g></g></g></g><mask id="0ec8ed36-fa31-4121-8aaa-bc3d7cd8004a"><rect data-gra="graph-name" x="0" y="0" width="71.15" height="71.15" rx="35.575" fill="white"></rect> <g data-gra="path-name" transform="translate(5.99999923706055,12.500000000000004)" fill="black"><g transform="scale(1)"><path d="M3.31-1.95C2.67-1.95 2.34-1.63 2.34-0.98C2.34-0.33 2.67 0 3.31 0L15.67 0C16.32 0 16.64-0.33 16.64-0.98C16.64-1.63 16.32-1.95 15.67-1.95L11.77-1.95C11.12-1.95 10.79-2.27 10.79-2.93L10.79-22.43C11.77-24.05 12.87-25.55 13.97-26.78C16.57-29.71 19.18-31.20 21.84-31.20C27.04-31.20 30.94-27.23 30.94-20.15L30.94-2.93C30.94-2.27 30.62-1.95 29.96-1.95L26.07-1.95C25.41-1.95 25.09-1.63 25.09-0.98C25.09-0.33 25.41 0 26.07 0L37.77 0C38.41 0 38.74-0.33 38.74-0.98C38.74-1.63 38.41-1.95 37.77-1.95L33.87-1.95C33.22-1.95 32.89-2.27 32.89-2.93L32.89-20.15C32.89-20.48 32.83-21.13 32.76-22.10C33.61-23.73 34.65-25.29 35.88-26.65C38.55-29.71 41.27-31.20 43.94-31.20C49.14-31.20 53.04-27.23 53.04-20.15L53.04-2.93C53.04-2.27 52.72-1.95 52.07-1.95L48.16-1.95C47.52-1.95 47.19-1.63 47.19-0.98C47.19-0.33 47.52 0 48.16 0L60.52 0C61.16 0 61.49-0.33 61.49-0.98C61.49-1.63 61.16-1.95 60.52-1.95L55.97-1.95C55.32-1.95 54.99-2.27 54.99-2.93L54.99-20.15C54.99-28.41 50.44-33.15 43.94-33.15C40.95-33.15 38.09-31.79 35.43-28.99C34.19-27.76 33.15-26.32 32.30-24.83C30.81-30.23 26.85-33.15 21.84-33.15C18.53-33.15 15.21-31.20 11.83-27.23C11.05-26.46 10.79-26.91 10.79-27.89L10.79-31.53C10.79-32.18 10.46-32.50 9.81-32.50L3.31-32.50C2.67-32.50 2.34-32.18 2.34-31.53C2.34-30.88 2.67-30.55 3.31-30.55L7.87-30.55C8.52-30.55 8.84-30.23 8.84-29.57L8.84-2.93C8.84-2.27 8.52-1.95 7.87-1.95L3.31-1.95Z" transform="translate(-2.34, 45.5)"></path></g></g></mask><defs v-gra="od"></defs></svg>